<?xml version="1.0" encoding="utf-8"?>
<!-- Generator: Adobe Illustrator 16.0.0, SVG Export Plug-In . SVG Version: 6.00 Build 0)  -->
<!DOCTYPE svg PUBLIC "-//W3C//DTD SVG 1.1//EN" "http://www.w3.org/Graphics/SVG/1.1/DTD/svg11.dtd">
<svg version="1.1" id="Layer_1" xmlns="http://www.w3.org/2000/svg" xmlns:xlink="http://www.w3.org/1999/xlink" x="0px" y="0px"
	 width="102.019px" height="170px" viewBox="0 0 102.019 170" enable-background="new 0 0 102.019 170" xml:space="preserve">
<path fill="#FFFFFF" d="M51.01,0C25.803,0,5.369,20.433,5.369,45.64c0,29.001,33.904,83.796,43.269,98.377
	c0.519,0.808,1.413,1.296,2.373,1.296c0.96,0,1.853-0.49,2.37-1.298c9.367-14.584,43.269-69.375,43.269-98.375
	C96.649,20.433,76.215,0,51.01,0 M51.01,71.681c-13.79,0-24.968-11.178-24.968-24.968c0-13.789,11.179-24.967,24.968-24.967
	c13.788,0,24.968,11.178,24.968,24.967C75.978,60.503,64.798,71.681,51.01,71.681"/>
<path fill="#FFFFFF" d="M26.847,147.157c0,7.645,12.155,11.645,24.162,11.645s24.163-4,24.163-11.645
	c0-4.135-3.561-7.202-8.728-9.147c-0.962,1.632-1.901,3.208-2.809,4.717c3.905,1.305,6.166,3.06,6.166,4.431
	c0,2.498-7.495,6.274-18.793,6.274c-11.297,0-18.793-3.776-18.793-6.274c0-1.371,2.262-3.126,6.166-4.431
	c-0.906-1.509-1.845-3.085-2.807-4.717C30.408,139.955,26.847,143.022,26.847,147.157"/>
<path fill="#FFFFFF" d="M86.214,130.426c-3.906-1.629-8.342-2.951-13.129-3.947c-0.943,1.68-1.878,3.323-2.799,4.928
	c16.152,3.047,26.363,9.653,26.363,15.752c0,8.264-18.744,17.473-45.64,17.473c-26.896,0-45.64-9.209-45.64-17.473
	c0-6.099,10.21-12.705,26.362-15.752c-0.92-1.604-1.854-3.248-2.797-4.928c-4.788,0.996-9.223,2.318-13.129,3.947
	C5.613,134.677,0,140.619,0,147.158c0,6.536,5.614,12.479,15.806,16.73C25.252,167.83,37.754,170,51.01,170
	c13.254,0,25.757-2.17,35.204-6.111c10.191-4.252,15.805-10.194,15.805-16.73C102.019,140.619,96.405,134.677,86.214,130.426"/>
</svg>
