<?xml version="1.0" encoding="utf-8"?>
<!-- Generator: Adobe Illustrator 16.0.0, SVG Export Plug-In . SVG Version: 6.00 Build 0)  -->
<!DOCTYPE svg PUBLIC "-//W3C//DTD SVG 1.1//EN" "http://www.w3.org/Graphics/SVG/1.1/DTD/svg11.dtd">
<svg version="1.1" id="art" xmlns="http://www.w3.org/2000/svg" xmlns:xlink="http://www.w3.org/1999/xlink" x="0px" y="0px"
	 width="72px" height="72px" viewBox="0 0 72 72" enable-background="new 0 0 72 72" xml:space="preserve">
<path id="share" fill="#FFFFFF" d="M58.237,46.521c-2.758,0-5.181,1.44-6.57,3.605L21.414,37.904c0.101-0.5,0.156-1.018,0.156-1.546
	c0-0.762-0.115-1.497-0.319-2.192l30.418-12.291c1.39,2.164,3.812,3.605,6.57,3.605c4.303,0,7.806-3.501,7.806-7.806
	s-3.501-7.806-7.806-7.806c-4.306,0-7.808,3.501-7.808,7.806c0,0.529,0.055,1.045,0.155,1.545L19.939,31.602
	c-1.429-1.852-3.663-3.051-6.177-3.051c-4.304,0-7.806,3.501-7.806,7.809c0,4.302,3.501,7.804,7.806,7.804
	c2.758,0,5.18-1.439,6.569-3.604l30.254,12.223c-0.101,0.5-0.154,1.017-0.154,1.544c0,4.305,3.502,7.808,7.807,7.808
	s7.807-3.503,7.807-7.808S62.542,46.521,58.237,46.521z"/>
</svg>
