<?xml version="1.0" encoding="utf-8"?>
<!-- Generator: Adobe Illustrator 16.0.0, SVG Export Plug-In . SVG Version: 6.00 Build 0)  -->
<!DOCTYPE svg PUBLIC "-//W3C//DTD SVG 1.1//EN" "http://www.w3.org/Graphics/SVG/1.1/DTD/svg11.dtd">
<svg version="1.1" id="art" xmlns="http://www.w3.org/2000/svg" xmlns:xlink="http://www.w3.org/1999/xlink" x="0px" y="0px"
	 width="72px" height="72px" viewBox="0 0 72 72" enable-background="new 0 0 72 72" xml:space="preserve">
<g id="pencil">
	<path fill="#FFFFFF" d="M21.403,54.226H34.34l14.413-35.671H35.815L21.403,54.226z M45.339,20.859L32.787,51.924h-4.866
		l5.713-14.141c0.159-0.393-0.031-0.842-0.423-0.999c-0.393-0.158-0.841,0.031-1,0.425l-5.946,14.715h-1.447l12.549-31.064H45.339z"
		/>
	<path fill="#FFFFFF" d="M46.027,8.282c-5.185,0-6.559,1.477-7.319,3.239l0.444-1.101l-0.444,1.101
		c-0.07,0.163-0.138,0.328-0.201,0.496l-1.931,4.778h12.937l1.645-4.069C51.913,10.852,51.69,8.282,46.027,8.282"/>
	<path fill="#FFFFFF" d="M31.732,55.486l-5.882,3.451h-2.389L22.8,56.209c-0.149-0.618-0.766-0.998-1.391-0.849
		c-0.618,0.15-0.998,0.772-0.848,1.392l1.688,6.968l10.647-6.246c0.549-0.322,0.732-1.027,0.411-1.576
		C32.986,55.348,32.28,55.164,31.732,55.486"/>
	<path fill="#FFFFFF" d="M35.332,32.337c0.094,0.039,0.191,0.057,0.288,0.057c0.305,0,0.591-0.182,0.711-0.48l3.971-9.827
		c0.158-0.394-0.031-0.84-0.424-0.999c-0.392-0.158-0.841,0.029-1,0.424l-3.97,9.827C34.749,31.731,34.939,32.179,35.332,32.337"/>
	<path fill="#FFFFFF" d="M33.948,43.516c0.094,0.037,0.191,0.055,0.288,0.055c0.304,0,0.591-0.183,0.711-0.479l4.122-10.199
		c0.158-0.394-0.031-0.84-0.424-0.999c-0.393-0.157-0.842,0.031-1,0.424l-4.121,10.199C33.365,42.908,33.555,43.354,33.948,43.516"
		/>
</g>
</svg>
