<?xml version="1.0" encoding="utf-8"?>
<!-- Generator: Adobe Illustrator 16.0.0, SVG Export Plug-In . SVG Version: 6.00 Build 0)  -->
<!DOCTYPE svg PUBLIC "-//W3C//DTD SVG 1.1//EN" "http://www.w3.org/Graphics/SVG/1.1/DTD/svg11.dtd">
<svg version="1.1" xmlns="http://www.w3.org/2000/svg" xmlns:xlink="http://www.w3.org/1999/xlink" x="0px" y="0px" width="72px"
	 height="72px" viewBox="0 0 72 72" enable-background="new 0 0 72 72" xml:space="preserve">
<g id="Layer_2" display="none">
	<rect display="inline" fill="#231F20" stroke="#FFFFFF" stroke-miterlimit="10" width="72" height="72"/>
</g>
<g id="Layer_1">
	<path id="search" display="none" fill="#FFFFFF" d="M37.01,7.515c-8.989,0-16.304,7.315-16.304,16.306
		c0,5.958,3.223,11.166,8.006,14.01L18.684,62.653l4.535,1.832l10.026-24.817c1.211,0.288,2.468,0.457,3.765,0.457
		c8.992,0,16.307-7.314,16.307-16.305C53.316,14.83,46.002,7.515,37.01,7.515 M37.01,36.864c-7.191,0-13.043-5.852-13.043-13.044
		s5.852-13.044,13.043-13.044c7.193,0,13.045,5.852,13.045,13.044S44.203,36.864,37.01,36.864"/>
	<g id="dining_set" display="none">
		<path display="inline" fill="#FFFFFF" d="M71.127,57.48c0,0,0-13.339-0.006-14.664c0.006-1.213-0.029-30.298-0.029-30.298h-0.668
			c0,0-5.41,3.056-5.41,25.71c4.156,1.141,2.408,5.685,2.094,6.264c0,1.155,0.086,12.995,0.086,12.995h0.014
			c0,0.016-0.006,0.022-0.006,0.036c-0.008,1.09,0.881,1.972,1.963,1.965c1.084,0,1.963-0.881,1.963-1.965
			c0-0.007,0-0.021-0.006-0.029L71.127,57.48z"/>
		<path display="inline" fill="#FFFFFF" d="M10.025,12.519H8.82l0.358,12.543H7.74V12.519H6.69v12.623H5.493V12.519h-1.16v12.623
			H2.924l0.401-12.63H2.231L0.903,23.194c0,0-0.03,0.402-0.03,0.555c0,1.65,0.761,3.124,1.956,4.081
			c3.935,4.444,1.247,8.977,1.247,10.048c0.009,1.188,0.009,19.537,0.009,19.537c0,0.016-0.009,0.02-0.009,0.043
			c0,1.125,0.912,2.03,2.037,2.03s2.036-0.912,2.036-2.03c0-0.023-0.008-0.027-0.008-0.043h0.008v-19.5
			c0-1.249-2.277-6.459,1.518-10.334c0.007,0,0.015-0.015,0.022-0.022c0.926-0.874,1.532-2.087,1.628-3.444
			c0.007-0.095,0.007-0.336,0.007-0.336L10.025,12.519z"/>
		<path display="inline" fill="#FFFFFF" d="M38.168,15.208c11.469,0,20.797,9.329,20.797,20.796
			c0,11.466-9.328,20.796-20.797,20.796c-11.466,0-20.795-9.33-20.795-20.796C17.373,24.537,26.702,15.208,38.168,15.208
			 M38.168,12.519c-12.969,0-23.483,10.514-23.483,23.485c0,12.969,10.515,23.484,23.483,23.484
			c12.971,0,23.484-10.516,23.484-23.484C61.652,23.032,51.139,12.519,38.168,12.519"/>
		<path display="inline" fill="#FFFFFF" d="M38.164,52.513c-9.103,0-16.51-7.405-16.51-16.509c0-9.105,7.407-16.512,16.51-16.512
			c9.105,0,16.512,7.407,16.512,16.512C54.676,45.107,47.27,52.513,38.164,52.513 M38.164,20.165
			c-8.732,0-15.837,7.105-15.837,15.839c0,8.732,7.104,15.838,15.837,15.838s15.838-7.105,15.838-15.838
			C54.002,27.27,46.896,20.165,38.164,20.165"/>
	</g>
	<g id="platter" display="none">
		<path display="inline" fill="#FFFFFF" d="M35.626,32.903H21.435c-2.51,0-3.548,1.472-5.971,4.068
			c-2.423,2.596-6.663,8.047-6.663,8.047l9.778,12.893l2.683-4.066c0,0,17.566-2.234,21.895-2.684
			c1.549-0.16,3.549-0.951,5.105-3.027s6.563-8.514,8.047-10.645c1.99-2.854-2.51-6.922-6.404-3.027
			c-3.551,3.553-8.393,8.826-8.393,8.826H24.637c0,0,0.951-1.299,0.086-3.635h11.595c2.683,0,3.288-1.039,3.288-3.635
			C39.605,34.289,38.48,32.903,35.626,32.903"/>
		<path display="inline" fill="#FFFFFF" d="M7.926,48.999l7.287,9.965l-5.751,8.004L2.671,54.489L7.926,48.999z M0.068,54.142
			l9.146,16.805l8.518-11.855L7.85,46.013L0.068,54.142z"/>
		<path display="inline" fill="#FFFFFF" d="M68.508,25.142C65.283,13.92,54.869,6.083,43.182,6.083
			c-11.691,0-22.107,7.842-25.33,19.069l4.448-0.001c3.066-8.79,11.483-14.829,20.882-14.829c9.4,0,17.82,6.041,20.885,14.832
			L68.508,25.142z"/>
		<path display="inline" fill="#FFFFFF" d="M70.873,29.313h-55.38c-0.586,0-1.061-0.476-1.061-1.061s0.475-1.06,1.061-1.06h55.38
			c0.586,0,1.059,0.475,1.059,1.06S71.459,29.313,70.873,29.313"/>
		<path display="inline" fill="#FFFFFF" d="M45.83,4.233h-5.299c-0.879,0-1.59-0.712-1.59-1.591c0-0.878,0.711-1.589,1.59-1.589
			h5.299c0.877,0,1.59,0.711,1.59,1.589C47.42,3.521,46.707,4.233,45.83,4.233"/>
	</g>
	<g id="pencil" display="none">
		<path display="inline" fill="#FFFFFF" d="M17.597,58.979h16.311l18.171-44.973H35.767L17.597,58.979z M47.773,16.911
			L31.949,56.075h-6.135l7.203-17.826c0.2-0.496-0.039-1.061-0.534-1.26s-1.06,0.039-1.26,0.535l-7.496,18.551h-1.825l15.823-39.164
			H47.773z"/>
		<path display="inline" fill="#FFFFFF" d="M48.64,1.054c-6.534,0-8.267,1.862-9.226,4.083l0.56-1.387l-0.56,1.387
			c-0.089,0.206-0.174,0.414-0.253,0.625l-2.435,6.024h16.31l2.073-5.13C56.063,4.295,55.782,1.054,48.64,1.054"/>
		<path display="inline" fill="#FFFFFF" d="M30.62,60.567l-7.416,4.35h-3.012l-0.834-3.439c-0.189-0.779-0.965-1.258-1.753-1.07
			c-0.779,0.189-1.258,0.975-1.069,1.754l2.128,8.785l13.425-7.875c0.692-0.406,0.923-1.295,0.518-1.986
			C32.2,60.392,31.31,60.161,30.62,60.567"/>
		<path display="inline" fill="#FFFFFF" d="M35.157,31.382c0.119,0.048,0.242,0.071,0.363,0.071c0.384,0,0.745-0.229,0.897-0.606
			l5.006-12.389c0.2-0.496-0.039-1.06-0.534-1.26c-0.495-0.199-1.06,0.038-1.26,0.535l-5.006,12.389
			C34.423,30.617,34.662,31.182,35.157,31.382"/>
		<path display="inline" fill="#FFFFFF" d="M33.412,45.474c0.119,0.047,0.242,0.07,0.363,0.07c0.383,0,0.745-0.229,0.897-0.605
			l5.196-12.858c0.201-0.496-0.039-1.06-0.534-1.26c-0.495-0.198-1.06,0.039-1.26,0.535l-5.196,12.859
			C32.678,44.71,32.917,45.272,33.412,45.474"/>
	</g>
	<path id="hat" display="none" fill="#FFFFFF" d="M53.284,12.033c-0.362,0-0.728,0.014-1.095,0.041
		c-3.586-5.394-9.663-8.687-16.188-8.687c-6.526,0-12.602,3.294-16.189,8.687c-0.367-0.027-0.733-0.041-1.095-0.041
		c-8.334,0-15.117,6.783-15.117,15.119c0,7.608,5.646,13.918,12.965,14.968v20.896c0,3.086,2.509,5.597,5.596,5.597h27.681
		c3.085,0,5.596-2.511,5.596-5.597V42.12c7.32-1.05,12.964-7.359,12.964-14.968C68.4,18.816,61.62,12.033,53.284,12.033
		 M25.968,63.037c0,0.772-0.628,1.399-1.4,1.399c-0.773,0-1.4-0.627-1.4-1.399V46.706c0-0.773,0.627-1.4,1.4-1.4
		c0.772,0,1.4,0.627,1.4,1.4V63.037z M32.5,54.871c0,0.773-0.628,1.4-1.4,1.4c-0.773,0-1.4-0.627-1.4-1.4V44.022
		c0-0.772,0.627-1.399,1.4-1.399c0.772,0,1.4,0.627,1.4,1.399V54.871z M38.566,60.296c0,0.774-0.627,1.399-1.399,1.399
		c-0.773,0-1.4-0.625-1.4-1.399V49.447c0-0.773,0.627-1.4,1.4-1.4c0.772,0,1.399,0.627,1.399,1.4V60.296z M43.933,63.037
		c0,0.772-0.627,1.399-1.4,1.399c-0.772,0-1.399-0.627-1.399-1.399V46.706c0-0.773,0.627-1.4,1.399-1.4c0.773,0,1.4,0.627,1.4,1.4
		V63.037z M48.832,54.871c0,0.773-0.627,1.4-1.4,1.4c-0.772,0-1.399-0.627-1.399-1.4V44.022c0-0.772,0.627-1.399,1.399-1.399
		c0.773,0,1.4,0.627,1.4,1.399V54.871z M53.284,37.97c-1.448,0-2.85-0.282-4.15-0.826c2.619-2.401,4.601-5.523,5.594-9.109
		c0.318-1.146-0.354-2.331-1.5-2.649c-1.146-0.317-2.331,0.354-2.648,1.5c-1.81,6.526-7.803,11.085-14.578,11.085
		c-6.776,0-12.771-4.559-14.578-11.085c-0.317-1.146-1.504-1.817-2.65-1.5c-1.146,0.317-1.816,1.504-1.499,2.649
		c0.994,3.586,2.973,6.708,5.593,9.109c-1.303,0.544-2.702,0.826-4.15,0.826c-5.961,0-10.812-4.852-10.812-10.817
		c0-5.963,4.85-10.815,10.812-10.815c0.603,0,1.224,0.055,1.844,0.16c0.896,0.152,1.794-0.274,2.239-1.067
		c2.681-4.773,7.739-7.738,13.201-7.738c5.461,0,10.518,2.965,13.198,7.738c0.446,0.794,1.344,1.22,2.241,1.067
		c0.62-0.105,1.241-0.16,1.844-0.16c5.962,0,10.812,4.853,10.812,10.815C64.096,33.118,59.246,37.97,53.284,37.97"/>
	<path id="share" display="none" fill="#FFFFFF" d="M61.568,48.096c-3.171,0-5.956,1.656-7.554,4.145L19.229,38.189
		c0.116-0.575,0.179-1.169,0.179-1.777c0-0.876-0.132-1.721-0.367-2.521l34.975-14.131c1.598,2.488,4.383,4.145,7.554,4.145
		c4.948,0,8.975-4.026,8.975-8.975c0-4.949-4.026-8.975-8.975-8.975c-4.95,0-8.977,4.026-8.977,8.975
		c0,0.608,0.063,1.202,0.178,1.776L17.533,30.943c-1.643-2.129-4.211-3.508-7.102-3.508c-4.948,0-8.975,4.026-8.975,8.978
		c0,4.947,4.026,8.973,8.975,8.973c3.171,0,5.956-1.656,7.553-4.145L52.77,55.295c-0.115,0.574-0.178,1.168-0.178,1.775
		c0,4.949,4.026,8.977,8.977,8.977c4.948,0,8.975-4.027,8.975-8.977S66.517,48.096,61.568,48.096z"/>
	<path id="pinterest" display="none" fill="#FFFFFF" d="M31.242,47.096c-1.807,9.467-4.007,18.539-10.541,23.279
		c-2.013-14.307,2.961-25.05,5.274-36.456c-3.941-6.63,0.474-19.981,8.782-16.691c10.225,4.045-8.856,24.658,3.955,27.235
		c13.373,2.686,18.833-23.207,10.539-31.626C37.272,0.678,14.374,12.559,17.19,29.968c0.685,4.253,5.08,5.545,1.755,11.421
		c-7.67-1.703-9.957-7.752-9.665-15.815C9.758,12.377,21.141,3.135,32.562,1.856c14.441-1.618,27.997,5.301,29.867,18.887
		c2.107,15.334-6.517,31.941-21.962,30.747C36.281,51.164,34.525,49.09,31.242,47.096"/>
	<path id="facebook" display="none" fill="#FFFFFF" d="M27.708,24.944h-8.292V36h8.292v33.167h13.819V36h10.065l0.991-11.056H41.527
		v-4.607c0-2.64,0.532-3.685,3.083-3.685h7.974V2.833H42.06c-9.939,0-14.352,4.375-14.352,12.756V24.944z"/>
	<path id="twit" display="none" fill="#FFFFFF" d="M69.167,15.427c-2.44,1.085-5.063,1.814-7.816,2.143
		c2.813-1.684,4.969-4.351,5.983-7.531c-2.629,1.56-5.541,2.694-8.643,3.304c-2.478-2.645-6.019-4.297-9.933-4.297
		c-8.788,0-15.241,8.195-13.259,16.708c-11.31-0.566-21.334-5.986-28.048-14.219c-3.565,6.116-1.849,14.122,4.209,18.173
		c-2.227-0.073-4.328-0.683-6.161-1.706C5.351,34.311,9.87,40.205,16.415,41.52c-1.915,0.521-4.014,0.64-6.147,0.235
		c1.73,5.403,6.757,9.339,12.714,9.449c-5.721,4.48-12.93,6.486-20.149,5.636c6.023,3.86,13.179,6.113,20.862,6.113
		c25.266,0,39.544-21.342,38.681-40.481C65.034,20.556,67.343,18.153,69.167,15.427"/>
	<g display="none">
		<path display="inline" fill="#FFFFFF" d="M52.666,70.666H19.333c-9.925,0-18-8.074-18-18V19.333c0-9.925,8.075-18,18-18h33.333
			c9.926,0,18,8.075,18,18v33.333C70.666,62.592,62.592,70.666,52.666,70.666z M19.333,4C10.879,4,4,10.879,4,19.333v33.333
			c0,8.455,6.878,15.333,15.333,15.333h33.333c8.455,0,15.333-6.878,15.333-15.333V19.333C67.999,10.879,61.121,4,52.666,4H19.333z"
			/>
		<path display="inline" fill="#FFFFFF" d="M36,54.133c-9.925,0-18-8.074-18-17.999c0-9.926,8.074-18,18-18c9.925,0,18,8.074,18,18
			C54,46.059,45.925,54.133,36,54.133z M36,20.8c-8.455,0-15.333,6.878-15.333,15.333c0,8.454,6.878,15.333,15.333,15.333
			c8.455,0,15.333-6.879,15.333-15.333C51.333,27.679,44.455,20.8,36,20.8z"/>
		<path display="inline" fill="#FFFFFF" d="M54.063,23.337c-2.758,0-5-2.243-5-5s2.242-5,5-5c2.757,0,4.999,2.243,4.999,5
			S56.82,23.337,54.063,23.337z M54.063,16.003c-1.287,0-2.334,1.047-2.334,2.333s1.047,2.333,2.334,2.333
			c1.286,0,2.333-1.047,2.333-2.333S55.35,16.003,54.063,16.003z"/>
	</g>
</g>
<g id="Layer_3">
	<g id="new_events">
		<path fill="#FFFFFF" d="M61.402,56.725c0,0-4.763,0.889-6.091-0.32s-5.295-14.781-4.317-17.342
			c5.421-6.694-2.988-28.485-2.988-28.485l-2.221,0.575l5.361,20.889c0.108,0.418-0.146,0.849-0.564,0.956
			c-0.419,0.107-0.849-0.146-0.956-0.565l-5.361-20.886l-1.945,0.504l-0.001,0l-5.693,1.447c0,0,3.125,23.148,11.1,26.404
			c2.089,1.773,5.148,15.578,4.566,17.277c-0.581,1.697-5.184,3.213-5.184,3.213l0.469,1.58c0,0,3.672,0.043,7.338-0.844
			c3.64-0.988,6.837-2.795,6.837-2.795L61.402,56.725z"/>
		<path fill="#FFFFFF" d="M22.76,56.219c0,0-3.89-1.527-4.309-3.018c-0.419-1.492,2.884-13.236,4.77-14.662
			c7.027-2.417,10.839-22.205,10.839-22.205l-1.887-0.594l-5.629,17.734c-0.113,0.354-0.496,0.553-0.851,0.439
			c-0.355-0.112-0.554-0.495-0.441-0.851l5.628-17.731l-1.654-0.521l-0.001,0L24.4,13.267c0,0-8.298,18.364-3.953,24.393
			c0.718,2.251-3.356,13.751-4.558,14.728s-5.261-0.018-5.261-0.018l-0.38,1.367c0,0,2.667,1.711,5.754,2.738
			c3.114,0.941,6.279,1.082,6.279,1.082L22.76,56.219z"/>
		<path fill="#FFFFFF" d="M37.603,7.726c0,1.114-0.902,2.016-2.016,2.016c-1.114,0-2.017-0.902-2.017-2.016s0.902-2.016,2.017-2.016
			C36.7,5.709,37.603,6.612,37.603,7.726"/>
		<path fill="#FFFFFF" d="M42.195,4.319c0,0.768-0.622,1.39-1.391,1.39c-0.768,0-1.39-0.623-1.39-1.39s0.622-1.39,1.39-1.39
			C41.573,2.93,42.195,3.552,42.195,4.319"/>
		<path fill="#FFFFFF" d="M32.772,2.391c0,0.768-0.623,1.39-1.39,1.39s-1.39-0.623-1.39-1.39s0.622-1.39,1.39-1.39
			S32.772,1.623,32.772,2.391"/>
	</g>
</g>
</svg>
