<?xml version="1.0" encoding="utf-8"?>
<!-- Generator: Adobe Illustrator 16.0.0, SVG Export Plug-In . SVG Version: 6.00 Build 0)  -->
<!DOCTYPE svg PUBLIC "-//W3C//DTD SVG 1.1//EN" "http://www.w3.org/Graphics/SVG/1.1/DTD/svg11.dtd">
<svg version="1.1" id="art" xmlns="http://www.w3.org/2000/svg" xmlns:xlink="http://www.w3.org/1999/xlink" x="0px" y="0px"
	 width="72px" height="72px" viewBox="0 0 72 72" enable-background="new 0 0 72 72" xml:space="preserve">
<g id="dining_set">
	<path fill="#FFFFFF" d="M71.127,57.48c0,0,0-13.339-0.006-14.664c0.006-1.213-0.029-30.298-0.029-30.298h-0.668
		c0,0-5.41,3.056-5.41,25.71c4.156,1.141,2.408,5.685,2.094,6.264c0,1.155,0.086,12.995,0.086,12.995h0.014
		c0,0.016-0.006,0.022-0.006,0.036c-0.008,1.09,0.881,1.972,1.963,1.965c1.084,0,1.963-0.881,1.963-1.965
		c0-0.007,0-0.021-0.006-0.029L71.127,57.48z"/>
	<path fill="#FFFFFF" d="M10.025,12.519H8.82l0.358,12.543H7.74V12.519H6.69v12.623H5.493V12.519h-1.16v12.623H2.924l0.401-12.63
		H2.231L0.903,23.194c0,0-0.03,0.402-0.03,0.555c0,1.65,0.761,3.124,1.956,4.081c3.935,4.444,1.247,8.977,1.247,10.048
		c0.009,1.188,0.009,19.537,0.009,19.537c0,0.016-0.009,0.02-0.009,0.043c0,1.125,0.912,2.03,2.037,2.03s2.036-0.912,2.036-2.03
		c0-0.023-0.008-0.027-0.008-0.043h0.008v-19.5c0-1.249-2.277-6.459,1.518-10.334c0.007,0,0.015-0.015,0.022-0.022
		c0.926-0.874,1.532-2.087,1.628-3.444c0.007-0.095,0.007-0.336,0.007-0.336L10.025,12.519z"/>
	<path fill="#FFFFFF" d="M38.168,15.208c11.469,0,20.797,9.329,20.797,20.796c0,11.466-9.328,20.796-20.797,20.796
		c-11.466,0-20.795-9.33-20.795-20.796C17.373,24.537,26.702,15.208,38.168,15.208 M38.168,12.519
		c-12.969,0-23.483,10.514-23.483,23.485c0,12.969,10.515,23.484,23.483,23.484c12.971,0,23.484-10.516,23.484-23.484
		C61.652,23.032,51.139,12.519,38.168,12.519"/>
	<path fill="#FFFFFF" d="M38.164,52.513c-9.103,0-16.51-7.405-16.51-16.509c0-9.105,7.407-16.512,16.51-16.512
		c9.105,0,16.512,7.407,16.512,16.512C54.676,45.107,47.27,52.513,38.164,52.513 M38.164,20.165
		c-8.732,0-15.837,7.105-15.837,15.839c0,8.732,7.104,15.838,15.837,15.838s15.838-7.105,15.838-15.838
		C54.002,27.27,46.896,20.165,38.164,20.165"/>
</g>
</svg>
