<?xml version="1.0" encoding="utf-8"?>
<!-- Generator: Adobe Illustrator 16.0.0, SVG Export Plug-In . SVG Version: 6.00 Build 0)  -->
<!DOCTYPE svg PUBLIC "-//W3C//DTD SVG 1.1//EN" "http://www.w3.org/Graphics/SVG/1.1/DTD/svg11.dtd">
<svg version="1.1" id="Layer_1" xmlns="http://www.w3.org/2000/svg" xmlns:xlink="http://www.w3.org/1999/xlink" x="0px" y="0px"
	 width="72px" height="72px" viewBox="0 0 72 72" enable-background="new 0 0 72 72" xml:space="preserve">
<g id="Layer_2" display="none">
	<rect display="inline" fill="#231F20" stroke="#FFFFFF" stroke-miterlimit="10" width="72" height="72"/>
</g>
<g>
	<path fill="#282828" d="M36,8.191c9.057,0,10.13,0.035,13.707,0.196c3.307,0.151,5.104,0.704,6.298,1.169
		c1.585,0.615,2.715,1.35,3.901,2.537c1.187,1.187,1.922,2.317,2.537,3.901c0.464,1.195,1.018,2.991,1.167,6.298
		c0.164,3.577,0.198,4.65,0.198,13.707c0,9.059-0.034,10.13-0.198,13.707c-0.149,3.307-0.703,5.104-1.167,6.298
		c-0.615,1.585-1.351,2.715-2.537,3.901s-2.316,1.922-3.901,2.537c-1.194,0.465-2.991,1.018-6.298,1.169
		C46.13,63.775,45.059,63.809,36,63.809c-9.058,0-10.13-0.033-13.707-0.196c-3.307-0.151-5.103-0.704-6.298-1.169
		c-1.584-0.615-2.714-1.351-3.901-2.537c-1.187-1.187-1.922-2.316-2.537-3.901c-0.465-1.194-1.018-2.991-1.169-6.298
		C8.226,46.13,8.191,45.059,8.191,36c0-9.057,0.035-10.13,0.196-13.707c0.151-3.307,0.704-5.103,1.169-6.298
		c0.615-1.584,1.35-2.714,2.537-3.901c1.187-1.187,2.317-1.922,3.901-2.537c1.195-0.465,2.991-1.018,6.298-1.169
		C25.87,8.226,26.943,8.191,36,8.191 M36,2.079c-9.212,0-10.368,0.039-13.985,0.205c-3.61,0.165-6.077,0.738-8.234,1.576
		c-2.231,0.867-4.123,2.027-6.009,3.912c-1.885,1.886-3.045,3.778-3.912,6.009c-0.838,2.158-1.411,4.624-1.576,8.234
		C2.117,25.632,2.079,26.788,2.079,36c0,9.213,0.039,10.368,0.205,13.985c0.165,3.611,0.738,6.077,1.576,8.234
		c0.867,2.23,2.027,4.122,3.912,6.009c1.886,1.886,3.778,3.045,6.009,3.912c2.158,0.839,4.624,1.412,8.234,1.577
		c3.617,0.165,4.773,0.204,13.985,0.204s10.367-0.039,13.985-0.204c3.61-0.165,6.077-0.738,8.234-1.577
		c2.23-0.867,4.122-2.026,6.009-3.912c1.885-1.887,3.045-3.778,3.912-6.009c0.838-2.157,1.411-4.623,1.576-8.234
		c0.166-3.617,0.205-4.772,0.205-13.985c0-9.212-0.039-10.368-0.205-13.985c-0.165-3.61-0.738-6.077-1.576-8.234
		c-0.867-2.231-2.027-4.123-3.912-6.009c-1.887-1.885-3.778-3.045-6.009-3.912c-2.157-0.838-4.624-1.411-8.234-1.576
		C46.367,2.117,45.212,2.079,36,2.079L36,2.079z"/>
	<path fill="#282828" d="M36,18.582c-9.621,0-17.418,7.798-17.418,17.418c0,9.62,7.798,17.42,17.418,17.42
		c9.62,0,17.418-7.8,17.418-17.42C53.418,26.379,45.62,18.582,36,18.582z M36,47.308c-6.244,0-11.307-5.063-11.307-11.308
		c0-6.244,5.063-11.307,11.307-11.307S47.307,29.756,47.307,36C47.307,42.245,42.244,47.308,36,47.308z"/>
	<circle fill="#282828" cx="54.107" cy="17.894" r="4.07"/>
</g>
</svg>
