<?xml version="1.0" encoding="utf-8"?>
<!-- Generator: Adobe Illustrator 16.0.0, SVG Export Plug-In . SVG Version: 6.00 Build 0)  -->
<!DOCTYPE svg PUBLIC "-//W3C//DTD SVG 1.1//EN" "http://www.w3.org/Graphics/SVG/1.1/DTD/svg11.dtd">
<svg version="1.1" id="Layer_1" xmlns="http://www.w3.org/2000/svg" xmlns:xlink="http://www.w3.org/1999/xlink" x="0px" y="0px"
	 width="72px" height="72px" viewBox="0 0 72 72" enable-background="new 0 0 72 72" xml:space="preserve">
<g id="Layer_2" display="none">
	<rect display="inline" fill="#231F20" stroke="#FFFFFF" stroke-miterlimit="10" width="72" height="72"/>
</g>
<g id="Layer_1_1_">
	<path id="pinterest" fill="#282828" d="M31.242,47.096c-1.807,9.467-4.007,18.539-10.541,23.279
		c-2.013-14.307,2.961-25.05,5.274-36.456c-3.941-6.63,0.474-19.981,8.782-16.691c10.226,4.045-8.856,24.658,3.955,27.235
		c13.373,2.686,18.833-23.207,10.539-31.626C37.271,0.678,14.374,12.559,17.19,29.968c0.685,4.253,5.08,5.545,1.755,11.421
		c-7.67-1.703-9.957-7.751-9.665-15.814C9.758,12.377,21.141,3.135,32.562,1.856C47.003,0.238,60.559,7.157,62.43,20.743
		c2.106,15.334-6.518,31.94-21.963,30.747C36.281,51.164,34.525,49.09,31.242,47.096"/>
</g>
</svg>
