<?xml version="1.0" encoding="utf-8"?>
<!-- Generator: Adobe Illustrator 16.0.0, SVG Export Plug-In . SVG Version: 6.00 Build 0)  -->
<!DOCTYPE svg PUBLIC "-//W3C//DTD SVG 1.1//EN" "http://www.w3.org/Graphics/SVG/1.1/DTD/svg11.dtd">
<svg version="1.1" id="art" xmlns="http://www.w3.org/2000/svg" xmlns:xlink="http://www.w3.org/1999/xlink" x="0px" y="0px"
	 width="72px" height="72px" viewBox="0 0 72 72" enable-background="new 0 0 72 72" xml:space="preserve">
<path id="search" fill="#282828" d="M36.911,10.285c-8.114,0-14.718,6.604-14.718,14.72c0,5.379,2.91,10.081,7.228,12.648
	l-9.053,22.407l4.094,1.654l9.052-22.403c1.093,0.26,2.228,0.412,3.398,0.412c8.118,0,14.722-6.603,14.722-14.72
	C51.633,16.888,45.029,10.285,36.911,10.285 M36.911,36.78c-6.491,0-11.774-5.283-11.774-11.776c0-6.493,5.283-11.775,11.774-11.775
	c6.494,0,11.777,5.283,11.777,11.775C48.688,31.497,43.405,36.78,36.911,36.78"/>
</svg>
