<?xml version="1.0" encoding="utf-8"?>
<!-- Generator: Adobe Illustrator 16.0.0, SVG Export Plug-In . SVG Version: 6.00 Build 0)  -->
<!DOCTYPE svg PUBLIC "-//W3C//DTD SVG 1.1//EN" "http://www.w3.org/Graphics/SVG/1.1/DTD/svg11.dtd">
<svg version="1.1" id="Layer_1" xmlns="http://www.w3.org/2000/svg" xmlns:xlink="http://www.w3.org/1999/xlink" x="0px" y="0px"
	 width="72px" height="72px" viewBox="0 0 72 72" enable-background="new 0 0 72 72" xml:space="preserve">
<g id="Layer_2" display="none">
	<rect display="inline" fill="#231F20" stroke="#FFFFFF" stroke-miterlimit="10" width="72" height="72"/>
</g>
<g id="Layer_1_1_">
	<path id="twit" fill="#282828" d="M69.167,15.427c-2.44,1.085-5.063,1.814-7.815,2.143c2.813-1.684,4.969-4.351,5.982-7.531
		c-2.629,1.56-5.541,2.694-8.643,3.304c-2.479-2.645-6.02-4.297-9.934-4.297c-8.787,0-15.241,8.195-13.259,16.708
		c-11.31-0.566-21.334-5.986-28.048-14.219c-3.565,6.116-1.849,14.122,4.209,18.173c-2.227-0.073-4.328-0.683-6.161-1.706
		C5.351,34.311,9.87,40.205,16.415,41.52c-1.915,0.521-4.014,0.641-6.147,0.235c1.73,5.403,6.757,9.339,12.714,9.449
		c-5.721,4.479-12.93,6.485-20.149,5.636c6.023,3.86,13.179,6.113,20.862,6.113c25.266,0,39.543-21.342,38.681-40.481
		C65.034,20.556,67.343,18.153,69.167,15.427"/>
</g>
</svg>
